<?xml version="1.0" encoding="UTF-8" standalone="no"?>
<svg
   xmlns:dc="http://purl.org/dc/elements/1.1/"
   xmlns:cc="http://creativecommons.org/ns#"
   xmlns:rdf="http://www.w3.org/1999/02/22-rdf-syntax-ns#"
   xmlns:svg="http://www.w3.org/2000/svg"
   xmlns="http://www.w3.org/2000/svg"
   xmlns:sodipodi="http://sodipodi.sourceforge.net/DTD/sodipodi-0.dtd"
   xmlns:inkscape="http://www.inkscape.org/namespaces/inkscape"
   version="1.1"
   id="svg2"
   viewBox="0 0 198.42508 60.23619"
   height="17mm"
   width="56mm"
   inkscape:version="0.91 r13725"
   sodipodi:docname="logo.svg">
  <sodipodi:namedview
     pagecolor="#ffffff"
     bordercolor="#666666"
     borderopacity="1"
     objecttolerance="10"
     gridtolerance="10"
     guidetolerance="10"
     inkscape:pageopacity="0"
     inkscape:pageshadow="2"
     inkscape:window-width="1815"
     inkscape:window-height="1396"
     id="namedview34"
     showgrid="false"
     inkscape:zoom="3.8402381"
     inkscape:cx="211.54356"
     inkscape:cy="-66.929629"
     inkscape:window-x="98"
     inkscape:window-y="36"
     inkscape:window-maximized="0"
     inkscape:current-layer="text6494" />
  <defs
     id="defs4" />
  <metadata
     id="metadata7">
    <rdf:RDF>
      <cc:Work
         rdf:about="">
        <dc:format>image/svg+xml</dc:format>
        <dc:type
           rdf:resource="http://purl.org/dc/dcmitype/StillImage" />
        <dc:title></dc:title>
      </cc:Work>
    </rdf:RDF>
  </metadata>
  <g
     transform="translate(0,-992.12551)"
     id="layer1">
    <g
       style="font-style:normal;font-weight:normal;font-size:40px;line-height:125%;font-family:sans-serif;letter-spacing:0px;word-spacing:0px;fill:#000000;fill-opacity:1;stroke:none;stroke-width:1px;stroke-linecap:butt;stroke-linejoin:miter;stroke-opacity:1"
       id="text6494">
      <path
         d="m 62.534058,1009.1588 q 6.04,0 9.24,2.2 3.24,2.2 3.24,6.88 0,2.44 -0.88,4.2 -0.84,1.72 -2.48,2.84 -1.64,1.08 -4,1.6 -2.36,0.52 -5.4,0.52 l -2.52,0 0,9.76 -5.04,0 0,-27.32 q 1.76,-0.4 3.88,-0.52 2.16,-0.16 3.96,-0.16 z m 0.36,4.36 q -1.92,0 -3.16,0.12 l 0,9.44 2.44,0 q 3.64,0 5.6,-1 1.96,-1.04 1.96,-3.88 0,-1.36 -0.52,-2.28 -0.52,-0.92 -1.44,-1.44 -0.92,-0.52 -2.2,-0.72 -1.24,-0.24 -2.68,-0.24 z"
         style="font-style:normal;font-variant:normal;font-weight:500;font-stretch:normal;font-family:Ubuntu;-inkscape-font-specification:'Ubuntu Medium';fill:#007ee5;fill-opacity:1"
         id="path4163" />
      <path
         d="m 93.414612,1016.6388 q 0,1.44 -0.6,2.84 -0.6,1.36 -1.56,2.68 -0.92,1.28 -2.12,2.52 -1.2,1.2 -2.4,2.36 -0.64,0.6 -1.44,1.44 -0.8,0.84 -1.52,1.68 -0.72,0.84 -1.24,1.64 -0.52,0.76 -0.56,1.28 l 12.32,0 0,4.08 -17.64,0 q -0.04,-0.32 -0.04,-0.76 0,-0.48 0,-0.72 0,-1.92 0.6,-3.52 0.64,-1.64 1.64,-3.04 1,-1.4 2.24,-2.64 1.24,-1.24 2.48,-2.44 0.96,-0.92 1.84,-1.8 0.88,-0.88 1.52,-1.72 0.68,-0.88 1.08,-1.76 0.4,-0.92 0.4,-1.88 0,-2.08 -1.2,-2.96 -1.2,-0.88 -2.92,-0.88 -1.12,0 -2.08,0.32 -0.96,0.32 -1.72,0.76 -0.72,0.44 -1.28,0.92 -0.56,0.44 -0.84,0.72 l -2.4,-3.4 q 1.68,-1.6 3.92,-2.56 2.28,-1 4.88,-1 4.44,0 6.52,2.12 2.12,2.08 2.12,5.72 z"
         style="font-style:normal;font-variant:normal;font-weight:500;font-stretch:normal;font-family:Ubuntu;-inkscape-font-specification:'Ubuntu Medium';fill:#007ee5;fill-opacity:1"
         id="path4165" />
      <path
         d="m 106.478,1009.1588 q 6.04,0 9.24,2.2 3.24,2.2 3.24,6.88 0,2.44 -0.88,4.2 -0.84,1.72 -2.48,2.84 -1.64,1.08 -4,1.6 -2.36,0.52 -5.4,0.52 l -2.52,0 0,9.76 -5.040003,0 0,-27.32 q 1.760003,-0.4 3.880003,-0.52 2.16,-0.16 3.96,-0.16 z m 0.36,4.36 q -1.92,0 -3.16,0.12 l 0,9.44 2.44,0 q 3.64,0 5.6,-1 1.96,-1.04 1.96,-3.88 0,-1.36 -0.52,-2.28 -0.52,-0.92 -1.44,-1.44 -0.92,-0.52 -2.2,-0.72 -1.24,-0.24 -2.68,-0.24 z"
         style="font-style:normal;font-variant:normal;font-weight:500;font-stretch:normal;font-family:Ubuntu;-inkscape-font-specification:'Ubuntu Medium';fill:#007ee5;fill-opacity:1"
         id="path4167" />
      <path
         d="m 130.85921,1037.4788 q -2.2,0 -4.44,-0.16 -2.24,-0.12 -3.92,-0.56 l 0,-26.92 q 0.88,-0.16 1.88,-0.28 1,-0.16 2.04,-0.24 1.04,-0.08 2.04,-0.12 1.04,-0.04 1.96,-0.04 2.52,0 4.68,0.4 2.16,0.36 3.72,1.24 1.6,0.88 2.48,2.32 0.88,1.44 0.88,3.56 0,1.96 -0.96,3.36 -0.92,1.4 -2.6,2.24 2.52,0.84 3.72,2.48 1.2,1.64 1.2,4.16 0,4.28 -3.12,6.44 -3.12,2.12 -9.56,2.12 z m -3.4,-12.8 0,8.44 q 0.84,0.08 1.8,0.12 0.96,0.04 1.76,0.04 1.56,0 2.88,-0.2 1.36,-0.2 2.32,-0.68 1,-0.52 1.56,-1.36 0.6,-0.84 0.6,-2.16 0,-2.36 -1.72,-3.28 -1.72,-0.92 -4.76,-0.92 l -4.44,0 z m 0,-3.96 3.56,0 q 2.88,0 4.52,-0.8 1.64,-0.84 1.64,-2.96 0,-2 -1.72,-2.84 -1.68,-0.84 -4.4,-0.84 -1.16,0 -2.08,0.04 -0.88,0.04 -1.52,0.12 l 0,7.28 z"
         style="font-style:normal;font-variant:normal;font-weight:500;font-stretch:normal;font-family:Ubuntu;-inkscape-font-specification:'Ubuntu Medium';fill:#007ee5;fill-opacity:1"
         id="path4169" />
      <path
         d="m 166.19178,1026.6788 q 0,2.48 -0.72,4.52 -0.72,2.04 -2.04,3.48 -1.32,1.44 -3.2,2.24 -1.84,0.8 -4.08,0.8 -2.24,0 -4.08,-0.8 -1.84,-0.8 -3.16,-2.24 -1.32,-1.44 -2.08,-3.48 -0.72,-2.04 -0.72,-4.52 0,-2.48 0.72,-4.48 0.76,-2.04 2.08,-3.48 1.36,-1.44 3.2,-2.2 1.84,-0.8 4.04,-0.8 2.2,0 4.04,0.8 1.88,0.76 3.2,2.2 1.32,1.44 2.04,3.48 0.76,2 0.76,4.48 z m -4.96,0 q 0,-3.12 -1.36,-4.92 -1.32,-1.84 -3.72,-1.84 -2.4,0 -3.76,1.84 -1.32,1.8 -1.32,4.92 0,3.16 1.32,5 1.36,1.84 3.76,1.84 2.4,0 3.72,-1.84 1.36,-1.84 1.36,-5 z"
         style="font-style:normal;font-variant:normal;font-weight:500;font-stretch:normal;font-family:Ubuntu;-inkscape-font-specification:'Ubuntu Medium';fill:#007ee5;fill-opacity:1"
         id="path4171" />
      <path
         d="m 176.39993,1023.0788 4.44,-6.84 5.08,0 -6.88,9.88 q 2.16,2.8 4.12,5.68 2,2.84 3.28,5.36 l -5.24,0 q -0.36,-0.76 -0.96,-1.72 -0.56,-1 -1.24,-2.04 -0.64,-1.08 -1.36,-2.12 -0.72,-1.04 -1.4,-1.96 -1.4,1.8 -2.76,4 -1.32,2.16 -2.2,3.84 l -4.96,0 q 0.6,-1.2 1.44,-2.56 0.84,-1.36 1.8,-2.76 0.96,-1.44 1.96,-2.84 1.04,-1.44 2.04,-2.72 l -6.92,-10.04 5.32,0 4.44,6.84 z"
         style="font-style:normal;font-variant:normal;font-weight:500;font-stretch:normal;font-family:Ubuntu;-inkscape-font-specification:'Ubuntu Medium';fill:#007ee5;fill-opacity:1"
         id="path4173" />
    </g>
    <g
       transform="translate(196.23533,48.319564)"
       id="g5050" />
    <g
       transform="translate(196.23533,48.319564)"
       id="g5052" />
    <g
       transform="translate(196.23533,48.319564)"
       id="g5054" />
    <g
       transform="translate(196.23533,48.319564)"
       id="g5056" />
    <g
       transform="translate(196.23533,48.319564)"
       id="g5058" />
    <g
       transform="translate(196.23533,48.319564)"
       id="g5060" />
    <path
       id="path5689-5-8-3"
       d="m 20.627853,1017.7289 -8.03564,-4.945 8.03564,-4.9451 z"
       style="fill:#007ee5;fill-opacity:1;fill-rule:evenodd;stroke:none;stroke-width:1px;stroke-linecap:butt;stroke-linejoin:miter;stroke-opacity:1" />
    <path
       id="path5689-7-1-3"
       d="m 28.719703,1022.7863 -8.03565,-4.945 8.03565,-4.9451 z"
       style="fill:#007ee5;fill-opacity:1;fill-rule:evenodd;stroke:none;stroke-width:1px;stroke-linecap:butt;stroke-linejoin:miter;stroke-opacity:1" />
    <path
       id="path5689-5-89-8"
       d="m 20.684053,1007.8388 8.03565,4.9451 -8.03565,4.945 z"
       style="fill:#007ee5;fill-opacity:1;fill-rule:evenodd;stroke:none;stroke-width:1px;stroke-linecap:butt;stroke-linejoin:miter;stroke-opacity:1" />
    <path
       id="path5689-5-8-3-4"
       d="m 36.858103,1017.7289 -8.03565,-4.945 8.03565,-4.9451 z"
       style="fill:#007ee5;fill-opacity:1;fill-rule:evenodd;stroke:none;stroke-width:1px;stroke-linecap:butt;stroke-linejoin:miter;stroke-opacity:1" />
    <path
       id="path5689-7-1-8"
       d="m 44.989673,1022.826 -8.03564,-4.945 8.03564,-4.945 z"
       style="fill:#007ee5;fill-opacity:1;fill-rule:evenodd;stroke:none;stroke-width:1px;stroke-linecap:butt;stroke-linejoin:miter;stroke-opacity:1" />
    <path
       id="path5689-5-89-89"
       d="m 36.954033,1007.8786 8.03564,4.945 -8.03564,4.945 z"
       style="fill:#007ee5;fill-opacity:1;fill-rule:evenodd;stroke:none;stroke-width:1px;stroke-linecap:butt;stroke-linejoin:miter;stroke-opacity:1" />
    <path
       id="path5689-3-2"
       d="m 20.684053,1028.0404 8.03565,4.945 -8.03565,4.945 z"
       style="fill:#007ee5;fill-opacity:1;fill-rule:evenodd;stroke:none;stroke-width:1px;stroke-linecap:butt;stroke-linejoin:miter;stroke-opacity:1" />
    <path
       id="path5689-7-1-5"
       d="m 20.627853,1037.9304 -8.03564,-4.945 8.03564,-4.945 z"
       style="fill:#007ee5;fill-opacity:1;fill-rule:evenodd;stroke:none;stroke-width:1px;stroke-linecap:butt;stroke-linejoin:miter;stroke-opacity:1" />
    <path
       id="path5689-5-89-4"
       d="m 12.592213,1022.983 8.03564,4.945 -8.03564,4.945 z"
       style="fill:#007ee5;fill-opacity:1;fill-rule:evenodd;stroke:none;stroke-width:1px;stroke-linecap:butt;stroke-linejoin:miter;stroke-opacity:1" />
    <path
       id="path5689-5-3-6-0"
       d="m 20.684053,1017.9256 8.03565,4.945 -8.03565,4.945 z"
       style="fill:#007ee5;fill-opacity:1;fill-rule:evenodd;stroke:none;stroke-width:1px;stroke-linecap:butt;stroke-linejoin:miter;stroke-opacity:1" />
    <path
       id="path5689-7-8-4-5"
       d="m 20.627853,1027.8156 -8.03564,-4.945 8.03564,-4.945 z"
       style="fill:#007ee5;fill-opacity:1;fill-rule:evenodd;stroke:none;stroke-width:1px;stroke-linecap:butt;stroke-linejoin:miter;stroke-opacity:1" />
    <path
       id="path5689-3-3-46"
       d="m 36.954033,1028.0801 8.03564,4.945 -8.03564,4.945 z"
       style="fill:#007ee5;fill-opacity:1;fill-rule:evenodd;stroke:none;stroke-width:1px;stroke-linecap:butt;stroke-linejoin:miter;stroke-opacity:1" />
    <path
       id="path5689-7-1-3-9"
       d="m 36.858103,1037.9304 -8.03565,-4.945 8.03565,-4.945 z"
       style="fill:#007ee5;fill-opacity:1;fill-rule:evenodd;stroke:none;stroke-width:1px;stroke-linecap:butt;stroke-linejoin:miter;stroke-opacity:1" />
    <path
       id="path5689-5-89-8-2"
       d="m 28.822453,1022.983 8.03565,4.945 -8.03565,4.945 z"
       style="fill:#007ee5;fill-opacity:1;fill-rule:evenodd;stroke:none;stroke-width:1px;stroke-linecap:butt;stroke-linejoin:miter;stroke-opacity:1" />
    <path
       id="path5689-5-3-6-6-2"
       d="m 36.954033,1017.9653 8.03564,4.945 -8.03564,4.945 z"
       style="fill:#007ee5;fill-opacity:1;fill-rule:evenodd;stroke:none;stroke-width:1px;stroke-linecap:butt;stroke-linejoin:miter;stroke-opacity:1" />
    <path
       id="path5689-7-8-4-0-4"
       d="m 36.858103,1027.8156 -8.03565,-4.945 8.03565,-4.945 z"
       style="fill:#007ee5;fill-opacity:1;fill-rule:evenodd;stroke:none;stroke-width:1px;stroke-linecap:butt;stroke-linejoin:miter;stroke-opacity:1" />
    <path
       id="path5689-5-3-6-6-4"
       d="m 28.769663,1033.1433 8.03565,4.945 -8.03565,4.945 z"
       style="fill:#007ee5;fill-opacity:1;fill-rule:evenodd;stroke:none;stroke-width:1px;stroke-linecap:butt;stroke-linejoin:miter;stroke-opacity:1" />
    <path
       id="path5689-7-8-4-0-7"
       d="m 28.666913,1043.0333 -8.03565,-4.945 8.03565,-4.945 z"
       style="fill:#007ee5;fill-opacity:1;fill-rule:evenodd;stroke:none;stroke-width:1px;stroke-linecap:butt;stroke-linejoin:miter;stroke-opacity:1" />
    <path
       id="path5689-5-3-6-7-3"
       d="m 28.681803,1002.8771 8.03565,4.945 -8.03565,4.945 z"
       style="fill:#007ee5;fill-opacity:1;fill-rule:evenodd;stroke:none;stroke-width:1px;stroke-linecap:butt;stroke-linejoin:miter;stroke-opacity:1" />
  </g>
</svg>
